<svg width="120" height="120" viewBox="0 0 120 120" fill="none" xmlns="http://www.w3.org/2000/svg">
<circle cx="60" cy="60" r="60" fill="white"/>
<circle cx="60" cy="60" r="59" stroke="#005BAC" stroke-opacity="0.35" stroke-width="2"/>
<path d="M27 54.5417V43.0833C27 42.5308 27.2634 42.0009 27.7322 41.6102C28.2011 41.2195 28.837 41 29.5 41H90.5C91.163 41 91.7989 41.2195 92.2678 41.6102C92.7366 42.0009 93 42.5308 93 43.0833V54.5417C91.3424 54.5417 89.7527 55.0904 88.5806 56.0672C87.4085 57.0439 86.75 58.3687 86.75 59.75C86.75 61.1313 87.4085 62.4561 88.5806 63.4328C89.7527 64.4096 91.3424 64.9583 93 64.9583V76.4167C93 76.9692 92.7366 77.4991 92.2678 77.8898C91.7989 78.2805 91.163 78.5 90.5 78.5H29.5C28.837 78.5 28.2011 78.2805 27.7322 77.8898C27.2634 77.4991 27 76.9692 27 76.4167V64.9583C28.6576 64.9583 30.2473 64.4096 31.4194 63.4328C32.5915 62.4561 33.25 61.1313 33.25 59.75C33.25 58.3687 32.5915 57.0439 31.4194 56.0672C30.2473 55.0904 28.6576 54.5417 27 54.5417ZM73 45.1667H32V51.35C33.878 52.1256 35.4587 53.323 36.5638 54.8072C37.6688 56.2914 38.2544 58.0033 38.2544 59.75C38.2544 61.4967 37.6688 63.2086 36.5638 64.6928C35.4587 66.177 33.878 67.3744 32 68.15V74.3333H73V45.1667ZM78 45.1667V74.3333H88V68.15C86.122 67.3744 84.5413 66.177 83.4362 64.6928C82.3312 63.2086 81.7456 61.4967 81.7456 59.75C81.7456 58.0033 82.3312 56.2914 83.4362 54.8072C84.5413 53.323 86.122 52.1256 88 51.35V45.1667H78Z" fill="#005BAC"/>
<path d="M52.06 65.6081L51.6661 52.3028L51.6055 49H56.3933L56.3327 52.3028L55.9388 65.6081H52.06ZM53.9691 71C52.8782 71 51.9994 70.0878 51.9994 68.7982C51.9994 67.4771 52.8782 66.5963 53.9691 66.5963C55.0903 66.5963 55.9994 67.4771 55.9994 68.7982C55.9994 70.0878 55.0903 71 53.9691 71Z" fill="#005BAC"/>
</svg>
