<svg width="120" height="120" viewBox="0 0 120 120" fill="none" xmlns="http://www.w3.org/2000/svg">
<circle cx="60" cy="60" r="60" fill="white"/>
<circle cx="60" cy="60" r="59" stroke="#005BAC" stroke-opacity="0.35" stroke-width="2"/>
<path d="M57.5837 53.3334V86.6667H78.417V53.3334H57.5837ZM55.5003 49.1667H80.5003C81.0529 49.1667 81.5828 49.3862 81.9735 49.7769C82.3642 50.1676 82.5837 50.6975 82.5837 51.2501V88.7501C82.5837 89.3026 82.3642 89.8325 81.9735 90.2232C81.5828 90.6139 81.0529 90.8334 80.5003 90.8334H55.5003C54.9478 90.8334 54.4179 90.6139 54.0272 90.2232C53.6365 89.8325 53.417 89.3026 53.417 88.7501V51.2501C53.417 50.6975 53.6365 50.1676 54.0272 49.7769C54.4179 49.3862 54.9478 49.1667 55.5003 49.1667ZM68.0003 80.4167C68.5529 80.4167 69.0828 80.6362 69.4735 81.0269C69.8642 81.4176 70.0837 81.9475 70.0837 82.5001C70.0837 83.0526 69.8642 83.5825 69.4735 83.9732C69.0828 84.3639 68.5529 84.5834 68.0003 84.5834C67.4478 84.5834 66.9179 84.3639 66.5272 83.9732C66.1365 83.5825 65.917 83.0526 65.917 82.5001C65.917 81.9475 66.1365 81.4176 66.5272 81.0269C66.9179 80.6362 67.4478 80.4167 68.0003 80.4167V80.4167Z" fill="#005BAC"/>
<path d="M51.0007 29.1667C54.8684 29.1667 58.5777 30.7032 61.3126 33.4381C64.0475 36.173 65.584 39.8823 65.584 43.7501H67.8215C68.3462 43.7501 68.8517 43.9481 69.2367 44.3046C69.6218 44.6611 69.8582 45.1498 69.8986 45.673L71.6611 68.5897C71.7036 69.1405 71.5256 69.6857 71.1661 70.1054C70.8067 70.525 70.2953 70.7846 69.7444 70.8272L69.584 70.8334H32.4173C31.8648 70.8334 31.3349 70.6139 30.9442 70.2232C30.5535 69.8325 30.334 69.3026 30.334 68.7501L30.3402 68.5897L32.1027 45.673C32.1431 45.1498 32.3795 44.6611 32.7646 44.3046C33.1496 43.9481 33.6551 43.7501 34.1798 43.7501H36.4173C36.4173 39.8823 37.9538 36.173 40.6887 33.4381C43.4236 30.7032 47.1329 29.1667 51.0007 29.1667V29.1667ZM55.1673 52.0834H46.834V56.2501H55.1673V52.0834ZM51.0007 33.3334C48.3164 33.3336 45.7357 34.37 43.797 36.2265C41.8582 38.083 40.7109 40.6162 40.5944 43.298L40.584 43.7501H61.4173C61.4172 41.0658 60.3808 38.4852 58.5243 36.5464C56.6678 34.6076 54.1345 33.4603 51.4527 33.3438L51.0007 33.3334Z" fill="#005BAC"/>
<rect x="24.4453" y="37" width="84.4765" height="4" transform="rotate(37.6802 24.4453 37)" fill="#005BAC"/>
<path d="M26.945 33.8343L93.8026 85.4708L91.3576 88.6365L24.5 37L26.945 33.8343Z" fill="white"/>
</svg>
