<svg width="120" height="120" viewBox="0 0 120 120" fill="none" xmlns="http://www.w3.org/2000/svg">
<circle cx="60" cy="60" r="60" fill="white"/>
<circle cx="60" cy="60" r="59" stroke="#005BAC" stroke-opacity="0.35" stroke-width="2"/>
<path d="M86.4163 85.5L33.9163 85.5C33.1428 85.5 32.4009 85.1927 31.8539 84.6457C31.307 84.0987 30.9997 83.3569 30.9997 82.5833L30.9997 35.9167C30.9997 35.1431 31.307 34.4012 31.854 33.8543C32.4009 33.3073 33.1428 33 33.9163 33L86.4163 33C87.1899 33 87.9318 33.3073 88.4787 33.8543C89.0257 34.4012 89.333 35.1431 89.333 35.9167L89.333 82.5833C89.333 83.3569 89.0257 84.0987 88.4787 84.6457C87.9318 85.1927 87.1899 85.5 86.4163 85.5V85.5ZM52.0201 65.6871L59.1659 58.5412L65.3522 64.7304L77.7276 52.355L73.6034 48.2308L65.3522 56.4792L59.1659 50.2929L47.8959 61.5629L42.6663 56.3333L42.6663 70.9167L57.2497 70.9167L52.0201 65.6871Z" fill="#005BAC"/>
</svg>
