<svg width="120" height="120" viewBox="0 0 120 120" fill="none" xmlns="http://www.w3.org/2000/svg">
<circle cx="60" cy="60" r="60" fill="white"/>
<circle cx="60" cy="60" r="59" stroke="#005BAC" stroke-opacity="0.35" stroke-width="2"/>
<path d="M98.771 76.7033H91.6869L84.5579 63.8801C84.3188 64.3882 84.0648 64.9263 83.7957 65.4942C83.5267 66.0322 83.2278 66.6002 82.899 67.198L81.4643 69.933L77.967 76.7033H70.9277L81.0159 59.6655L71.2864 42.8967H78.4154L82.1816 50.0705L84.8718 55.3612L87.562 50.0705L91.3731 42.8967H98.4572L88.4587 59.4413L98.771 76.7033Z" fill="#005BAC"/>
<path d="M54.505 76.7033V48.2322H44.8652V42.8967H70.1977V48.2322H60.5579V76.7033H54.505Z" fill="#005BAC"/>
<path d="M19.8965 76.7033V42.8967H25.8149V57.9617L28.1015 54.7783L37.2033 42.8967H44.8703L33.0335 57.4237L45.6325 76.7033H38.3242L28.6844 61.4141L25.8149 64.6871V76.7033H19.8965Z" fill="#005BAC"/>
<path fill-rule="evenodd" clip-rule="evenodd" d="M100.351 77.6H91.1593L84.6228 65.8425C84.6172 65.8544 84.6116 65.8662 84.606 65.8781L84.6019 65.8867L84.5976 65.8952C84.3239 66.4427 84.0209 67.0184 83.6888 67.6223L82.2608 70.3445L82.2582 70.3496L78.5129 77.6H69.3545L79.9763 59.6609L69.7292 42H78.9572L82.9809 49.6641L84.8716 53.3828L86.7661 49.6569L90.8339 42H100.047L89.5047 59.444L100.351 77.6ZM88.4585 59.4413L98.457 42.8967H91.3729L87.5618 50.0705L84.8716 55.3612L82.1815 50.0705L78.4152 42.8967H71.2863L81.0157 59.6655L70.9276 76.7033H77.9669L81.4641 69.933L82.8988 67.198C83.2277 66.6002 83.5266 66.0322 83.7956 65.4942C83.8947 65.2849 83.9918 65.0797 84.0869 64.8785C84.2498 64.5338 84.4068 64.201 84.5578 63.8801L91.6868 76.7033H98.7709L88.4585 59.4413Z" fill="#005BAC"/>
<path fill-rule="evenodd" clip-rule="evenodd" d="M53.6085 77.6V49.129H43.9688V44.0037L44.8655 42.9032V48.2322H54.5053V76.7033H60.5582V48.2322H70.198V42.8967H43.9688V42H71.0947V49.129H61.4549V77.6H53.6085Z" fill="#005BAC"/>
<path fill-rule="evenodd" clip-rule="evenodd" d="M19 77.6V42H26.7118V55.1763L27.3815 54.244L36.7608 42H46.7579L46.0272 42.8967H37.2035L28.1018 54.7783L25.8151 57.9617V42.8967H19.8967V76.7033H25.8151V64.6871L28.6846 61.4141L38.3244 76.7033H45.6327L33.0337 57.4237L44.8653 42.9032V44.3228L34.143 57.4819L47.2899 77.6H37.8297L28.5669 62.9087L26.7118 65.0246V77.6H19Z" fill="#005BAC"/>
</svg>
