<svg width="120" height="120" viewBox="0 0 120 120" fill="none" xmlns="http://www.w3.org/2000/svg">
<path d="M120 60C120 93.1371 93.1371 120 60 120C26.8629 120 0 93.1371 0 60C0 26.8629 26.8629 0 60 0C93.1371 0 120 26.8629 120 60Z" fill="white"/>
<path d="M119 60C119 92.5848 92.5848 119 60 119C27.4152 119 1 92.5848 1 60C1 27.4152 27.4152 1 60 1C92.5848 1 119 27.4152 119 60Z" stroke="#005BAC" stroke-opacity="0.35" stroke-width="2"/>
<path d="M51.6667 41.6842V48C51.6667 53.2316 45.6963 57.4737 38.3333 57.4737C30.9704 57.4737 25 53.2316 25 48V41.6842C25 46.9158 30.9704 51.1579 38.3333 51.1579C45.6963 51.1579 51.6667 46.9158 51.6667 41.6842ZM25 52.2105C25 57.4421 30.9704 61.6842 38.3333 61.6842C45.6963 61.6842 51.6667 57.4421 51.6667 52.2105V58.5263C51.6667 63.7579 45.6963 68 38.3333 68C30.9704 68 25 63.7579 25 58.5263V52.2105ZM38.3333 46.9474C30.9704 46.9474 25 42.7053 25 37.4737C25 32.2421 30.9704 28 38.3333 28C45.6963 28 51.6667 32.2421 51.6667 37.4737C51.6667 42.7053 45.6963 46.9474 38.3333 46.9474Z" fill="#005BAC"/>
<path d="M65.0007 47.0177V53.3335C65.0007 58.5651 59.0303 62.8072 51.6673 62.8072C44.3044 62.8072 38.334 58.5651 38.334 53.3335V47.0177C38.334 52.2493 44.3044 56.4914 51.6673 56.4914C59.0303 56.4914 65.0007 52.2493 65.0007 47.0177ZM38.334 57.544C38.334 62.7756 44.3044 67.0177 51.6673 67.0177C59.0303 67.0177 65.0007 62.7756 65.0007 57.544V63.8598C65.0007 69.0914 59.0303 73.3335 51.6673 73.3335C44.3044 73.3335 38.334 69.0914 38.334 63.8598V57.544ZM51.6673 52.2809C44.3044 52.2809 38.334 48.0388 38.334 42.8072C38.334 37.5756 44.3044 33.3335 51.6673 33.3335C59.0303 33.3335 65.0007 37.5756 65.0007 42.8072C65.0007 48.0388 59.0303 52.2809 51.6673 52.2809Z" fill="#005BAC"/>
<path d="M54.3327 55.0177V61.3335C54.3327 66.5651 48.3623 70.8072 40.9993 70.8072C33.6364 70.8072 27.666 66.5651 27.666 61.3335V55.0177C27.666 60.2493 33.6364 64.4914 40.9993 64.4914C48.3623 64.4914 54.3327 60.2493 54.3327 55.0177ZM27.666 65.544C27.666 70.7756 33.6364 75.0177 40.9993 75.0177C48.3623 75.0177 54.3327 70.7756 54.3327 65.544V71.8598C54.3327 77.0914 48.3623 81.3335 40.9993 81.3335C33.6364 81.3335 27.666 77.0914 27.666 71.8598V65.544ZM40.9993 60.2809C33.6364 60.2809 27.666 56.0388 27.666 50.8072C27.666 45.5756 33.6364 41.3335 40.9993 41.3335C48.3623 41.3335 54.3327 45.5756 54.3327 50.8072C54.3327 56.0388 48.3623 60.2809 40.9993 60.2809Z" fill="#005BAC"/>
<path d="M82 76.5H76.0358V62.1877V61.6877H75.5358H71.5H71V62.1877V81.0939V81.5939H71.5H82H82.5V81.0939V77V76.5H82ZM87.1335 51.8192L90.0345 48.7316L98.3142 57.5478L95.4142 60.6387L87.1335 51.8192ZM73 99.5C70.0731 99.5 67.174 98.886 64.468 97.6922C61.7619 96.4984 59.3009 94.7476 57.2265 92.5381C55.152 90.3287 53.5049 87.7039 52.3807 84.8131C51.2564 81.9222 50.6774 78.8228 50.6774 75.6921C50.6774 72.5614 51.2564 69.462 52.3807 66.5711C53.5049 63.6803 55.152 61.0555 57.2265 58.8461C59.3009 56.6366 61.7619 54.8858 64.468 53.692C67.174 52.4982 70.0731 51.8842 73 51.8842C78.9098 51.8842 84.5844 54.3843 88.7735 58.8461C92.9636 63.3088 95.3226 69.368 95.3226 75.6921C95.3226 82.0162 92.9636 88.0754 88.7735 92.5381C84.5844 96.9998 78.9098 99.5 73 99.5ZM50.5835 60.6386L47.6856 57.5478L55.9643 48.7303L58.8664 51.8191L50.5835 60.6386Z" fill="#005BAC" stroke="white"/>
</svg>
