<svg width="120" height="120" viewBox="0 0 120 120" fill="none" xmlns="http://www.w3.org/2000/svg">
<circle cx="60" cy="60" r="60" fill="white"/>
<circle cx="60" cy="60" r="59" stroke="#005BAC" stroke-opacity="0.35" stroke-width="2"/>
<path d="M69.6111 77.3158L73.1111 80.0789V81H45.8889V80.0789L49.3889 77.3158H45.8889C44.8575 77.3158 43.8683 76.9276 43.139 76.2367C42.4097 75.5458 42 74.6087 42 73.6316V53.3684C42 51.4142 42.8194 49.54 44.2781 48.1582C45.7367 46.7763 47.715 46 49.7778 46H69.2222C71.285 46 73.2633 46.7763 74.7219 48.1582C76.1806 49.54 77 51.4142 77 53.3684V73.6316C77 74.6087 76.5903 75.5458 75.861 76.2367C75.1317 76.9276 74.1425 77.3158 73.1111 77.3158H69.6111ZM57.5556 62.5789V49.6842H49.7778C48.7464 49.6842 47.7572 50.0724 47.0279 50.7633C46.2986 51.4542 45.8889 52.3913 45.8889 53.3684V62.5789H57.5556ZM61.4444 62.5789H73.1111V53.3684C73.1111 52.3913 72.7014 51.4542 71.9721 50.7633C71.2428 50.0724 70.2536 49.6842 69.2222 49.6842H61.4444V62.5789ZM50.75 73.6316C51.5235 73.6316 52.2654 73.3405 52.8124 72.8223C53.3594 72.3041 53.6667 71.6013 53.6667 70.8684C53.6667 70.1356 53.3594 69.4328 52.8124 68.9146C52.2654 68.3964 51.5235 68.1053 50.75 68.1053C49.9765 68.1053 49.2346 68.3964 48.6876 68.9146C48.1406 69.4328 47.8333 70.1356 47.8333 70.8684C47.8333 71.6013 48.1406 72.3041 48.6876 72.8223C49.2346 73.3405 49.9765 73.6316 50.75 73.6316V73.6316ZM68.25 73.6316C69.0235 73.6316 69.7654 73.3405 70.3124 72.8223C70.8594 72.3041 71.1667 71.6013 71.1667 70.8684C71.1667 70.1356 70.8594 69.4328 70.3124 68.9146C69.7654 68.3964 69.0235 68.1053 68.25 68.1053C67.4765 68.1053 66.7346 68.3964 66.1876 68.9146C65.6406 69.4328 65.3333 70.1356 65.3333 70.8684C65.3333 71.6013 65.6406 72.3041 66.1876 72.8223C66.7346 73.3405 67.4765 73.6316 68.25 73.6316Z" fill="#005BAC"/>
<circle cx="59" cy="62" r="29" stroke="#005BAC" stroke-width="4"/>
</svg>
