<svg width="120" height="120" viewBox="0 0 120 120" fill="none" xmlns="http://www.w3.org/2000/svg">
<circle cx="60" cy="60" r="60" fill="#fff"/>
<circle cx="60" cy="60" r="59" stroke="#005BAC" stroke-opacity="0.35" stroke-width="2"/>
<path d="M74.583 83.3333H45.4163V86.25C45.4163 87.0235 45.1091 87.7654 44.5621 88.3124C44.0151 88.8594 43.2732 89.1667 42.4997 89.1667H36.6663C35.8928 89.1667 35.1509 88.8594 34.6039 88.3124C34.057 87.7654 33.7497 87.0235 33.7497 86.25V60H30.833V48.3333H33.7497V39.5833C33.7497 38.0362 34.3643 36.5525 35.4582 35.4585C36.5522 34.3646 38.0359 33.75 39.583 33.75H80.4163C81.9634 33.75 83.4472 34.3646 84.5411 35.4585C85.6351 36.5525 86.2497 38.0362 86.2497 39.5833V48.3333H89.1663V60H86.2497V86.25C86.2497 87.0235 85.9424 87.7654 85.3954 88.3124C84.8484 88.8594 84.1066 89.1667 83.333 89.1667H77.4997C76.7261 89.1667 75.9843 88.8594 75.4373 88.3124C74.8903 87.7654 74.583 87.0235 74.583 86.25V83.3333ZM39.583 39.5833V60H80.4163V39.5833H39.583ZM46.8747 77.5C48.035 77.5 49.1478 77.0391 49.9683 76.2186C50.7887 75.3981 51.2497 74.2853 51.2497 73.125C51.2497 71.9647 50.7887 70.8519 49.9683 70.0314C49.1478 69.2109 48.035 68.75 46.8747 68.75C45.7144 68.75 44.6016 69.2109 43.7811 70.0314C42.9606 70.8519 42.4997 71.9647 42.4997 73.125C42.4997 74.2853 42.9606 75.3981 43.7811 76.2186C44.6016 77.0391 45.7144 77.5 46.8747 77.5V77.5ZM73.1247 77.5C74.285 77.5 75.3978 77.0391 76.2183 76.2186C77.0387 75.3981 77.4997 74.2853 77.4997 73.125C77.4997 71.9647 77.0387 70.8519 76.2183 70.0314C75.3978 69.2109 74.285 68.75 73.1247 68.75C71.9644 68.75 70.8516 69.2109 70.0311 70.0314C69.2106 70.8519 68.7497 71.9647 68.7497 73.125C68.7497 74.2853 69.2106 75.3981 70.0311 76.2186C70.8516 77.0391 71.9644 77.5 73.1247 77.5Z" fill="#005BAC"/>
</svg>
