<svg width="120" height="120" viewBox="0 0 120 120" fill="none" xmlns="http://www.w3.org/2000/svg">
<circle cx="60" cy="60" r="60" fill="#fff"/>
<circle cx="60" cy="60" r="59" stroke="#005BAC" stroke-opacity="0.35" stroke-width="2"/>
<path d="M50.167 53.6667C50.167 53.2246 50.3865 52.8007 50.7772 52.4882C51.1679 52.1756 51.6978 52 52.2503 52H89.7503C90.3029 52 90.8328 52.1756 91.2235 52.4882C91.6142 52.8007 91.8337 53.2246 91.8337 53.6667V62.8333C90.4523 62.8333 89.1276 63.2723 88.1508 64.0537C87.1741 64.8351 86.6253 65.8949 86.6253 67C86.6253 68.1051 87.1741 69.1649 88.1508 69.9463C89.1276 70.7277 90.4523 71.1667 91.8337 71.1667V80.3333C91.8337 80.7754 91.6142 81.1993 91.2235 81.5118C90.8328 81.8244 90.3029 82 89.7503 82H52.2503C51.6978 82 51.1679 81.8244 50.7772 81.5118C50.3865 81.1993 50.167 80.7754 50.167 80.3333V53.6667ZM62.8441 78.6667C63.0588 78.1783 63.4577 77.7554 63.9858 77.4562C64.5138 77.157 65.1449 76.9963 65.792 76.9963C66.4391 76.9963 67.0702 77.157 67.5982 77.4562C68.1263 77.7554 68.5252 78.1783 68.7399 78.6667H87.667V73.72C86.102 73.0995 84.7848 72.1416 83.8639 70.9542C82.943 69.7669 82.455 68.3973 82.455 67C82.455 65.6027 82.943 64.2331 83.8639 63.0458C84.7848 61.8584 86.102 60.9005 87.667 60.28V55.3333H68.7399C68.5252 55.8217 68.1263 56.2446 67.5982 56.5438C67.0702 56.843 66.4391 57.0037 65.792 57.0037C65.1449 57.0037 64.5138 56.843 63.9858 56.5438C63.4577 56.2446 63.0588 55.8217 62.8441 55.3333H54.3337V78.6667H62.8441ZM65.792 65.3333C64.9632 65.3333 64.1683 65.0699 63.5823 64.6011C62.9962 64.1323 62.667 63.4964 62.667 62.8333C62.667 62.1703 62.9962 61.5344 63.5823 61.0656C64.1683 60.5967 64.9632 60.3333 65.792 60.3333C66.6208 60.3333 67.4157 60.5967 68.0017 61.0656C68.5878 61.5344 68.917 62.1703 68.917 62.8333C68.917 63.4964 68.5878 64.1323 68.0017 64.6011C67.4157 65.0699 66.6208 65.3333 65.792 65.3333ZM65.792 73.6667C64.9632 73.6667 64.1683 73.4033 63.5823 72.9344C62.9962 72.4656 62.667 71.8297 62.667 71.1667C62.667 70.5036 62.9962 69.8677 63.5823 69.3989C64.1683 68.9301 64.9632 68.6667 65.792 68.6667C66.6208 68.6667 67.4157 68.9301 68.0017 69.3989C68.5878 69.8677 68.917 70.5036 68.917 71.1667C68.917 71.8297 68.5878 72.4656 68.0017 72.9344C67.4157 73.4033 66.6208 73.6667 65.792 73.6667Z" fill="#005BAC"/>
<path d="M45.917 67C45.917 66.337 45.5878 65.7011 45.0017 65.2322C44.4156 64.7634 43.6208 64.5 42.792 64.5C41.9632 64.5 41.1683 64.7634 40.5823 65.2322C39.9962 65.7011 39.667 66.337 39.667 67H29.2503C28.6978 67 28.1679 66.8244 27.7772 66.5118C27.3865 66.1993 27.167 65.7754 27.167 65.3333V38.6667C27.167 38.2246 27.3865 37.8007 27.7772 37.4882C28.1679 37.1756 28.6978 37 29.2503 37H39.667C39.667 37.663 39.9962 38.2989 40.5823 38.7678C41.1683 39.2366 41.9632 39.5 42.792 39.5C43.6208 39.5 44.4156 39.2366 45.0017 38.7678C45.5878 38.2989 45.917 37.663 45.917 37H66.7503C67.3029 37 67.8328 37.1756 68.2235 37.4882C68.6142 37.8007 68.8337 38.2246 68.8337 38.6667V47.8333C67.4523 47.8333 66.1276 48.2723 65.1508 49.0537C64.1741 49.8351 63.6253 50.8949 63.6253 52C63.6253 53.1051 64.1741 54.1649 65.1508 54.9463C66.1276 55.7277 67.4523 56.1667 68.8337 56.1667V65.3333C68.8337 65.7754 68.6142 66.1993 68.2235 66.5118C67.8328 66.8244 67.3029 67 66.7503 67H45.917ZM42.792 49.5C43.6208 49.5 44.4156 49.2366 45.0017 48.7678C45.5878 48.2989 45.917 47.663 45.917 47C45.917 46.337 45.5878 45.7011 45.0017 45.2322C44.4156 44.7634 43.6208 44.5 42.792 44.5C41.9632 44.5 41.1683 44.7634 40.5823 45.2322C39.9962 45.7011 39.667 46.337 39.667 47C39.667 47.663 39.9962 48.2989 40.5823 48.7678C41.1683 49.2366 41.9632 49.5 42.792 49.5ZM42.792 59.5C43.6208 59.5 44.4156 59.2366 45.0017 58.7678C45.5878 58.2989 45.917 57.663 45.917 57C45.917 56.337 45.5878 55.7011 45.0017 55.2322C44.4156 54.7634 43.6208 54.5 42.792 54.5C41.9632 54.5 41.1683 54.7634 40.5823 55.2322C39.9962 55.7011 39.667 56.337 39.667 57C39.667 57.663 39.9962 58.2989 40.5823 58.7678C41.1683 59.2366 41.9632 59.5 42.792 59.5Z" fill="#005BAC"/>
</svg>
